<svg xmlns="http://www.w3.org/2000/svg" viewBox="0 0 1280 820" font-family="Inter, system-ui, sans-serif">
  <title>07 — MCP Tool Web</title>
  <defs><radialGradient id="bg7" cx="50%" cy="40%" r="80%"><stop offset="0%" stop-color="#0a1410"/><stop offset="100%" stop-color="#050807"/></radialGradient></defs>
  <rect width="1280" height="820" fill="#0a0d0b"/>
  <rect x="0" y="0" width="1280" height="34" fill="#1b201d"/>
  <circle cx="20" cy="17" r="5" fill="#ff5f57"/><circle cx="40" cy="17" r="5" fill="#febc2e"/><circle cx="60" cy="17" r="5" fill="#28c840"/>
  <rect x="120" y="9" width="1040" height="16" rx="8" fill="#0a0d0b"/>
  <text x="640" y="21" fill="#6b756e" font-size="10" text-anchor="middle">t3ratech.co.zw · section: Browser &amp; Extensions (tool subset surfaced)</text>
  <rect x="0" y="34" width="1280" height="786" fill="url(#bg7)"/>
  <!-- radial web of tool nodes -->
  <g stroke="#19a866" stroke-opacity="0.15" stroke-width="1">
    <line x1="640" y1="420" x2="640" y2="180"/><line x1="640" y1="420" x2="820" y2="240"/>
    <line x1="640" y1="420" x2="920" y2="380"/><line x1="640" y1="420" x2="900" y2="540"/>
    <line x1="640" y1="420" x2="760" y2="640"/><line x1="640" y1="420" x2="520" y2="660"/>
    <line x1="640" y1="420" x2="380" y2="560"/><line x1="640" y1="420" x2="360" y2="380"/>
    <line x1="640" y1="420" x2="460" y2="240"/>
    <line x1="820" y1="240" x2="920" y2="380"/><line x1="920" y1="380" x2="900" y2="540"/>
    <line x1="900" y1="540" x2="760" y2="640"/><line x1="760" y1="640" x2="520" y2="660"/>
    <line x1="520" y1="660" x2="380" y2="560"/><line x1="380" y1="560" x2="360" y2="380"/>
    <line x1="360" y1="380" x2="460" y2="240"/><line x1="460" y1="240" x2="640" y2="180"/>
  </g>
  <!-- dim nodes -->
  <g fill="#19a866" fill-opacity="0.3">
    <circle cx="640" cy="180" r="4"/><circle cx="820" cy="240" r="4"/><circle cx="920" cy="380" r="4"/>
    <circle cx="900" cy="540" r="4"/><circle cx="760" cy="640" r="4"/><circle cx="520" cy="660" r="4"/>
    <circle cx="380" cy="560" r="4"/><circle cx="360" cy="380" r="4"/><circle cx="460" cy="240" r="4"/>
  </g>
  <!-- cursor at 820,300 reels in nearby nodes -->
  <g stroke="#19a866" stroke-width="1.5" stroke-opacity="0.8">
    <line x1="820" y1="240" x2="820" y2="300"/><line x1="920" y1="380" x2="820" y2="300"/>
    <line x1="640" y1="180" x2="820" y2="300"/>
  </g>
  <g fill="#9be8c4">
    <circle cx="820" cy="240" r="7"/><circle cx="920" cy="380" r="7"/><circle cx="640" cy="180" r="7"/>
  </g>
  <g fill="#cfd6cf" font-size="9">
    <text x="820" y="226" text-anchor="middle" font-weight="700">screenshot</text>
    <text x="940" y="376" text-anchor="middle">css-inspect</text>
    <text x="640" y="166" text-anchor="middle">page-audit</text>
  </g>
  <circle cx="640" cy="420" r="20" fill="#0e1310" stroke="#19a866" stroke-width="2"/>
  <text x="640" y="424" fill="#9be8c4" font-size="9" text-anchor="middle">103 tools</text>
  <rect x="0" y="34" width="1280" height="56" fill="#050505" fill-opacity="0.7"/>
  <rect x="32" y="48" width="28" height="28" rx="6" fill="#fff"/><text x="46" y="68" fill="#087a48" font-size="16" font-weight="800" text-anchor="middle">T3</text><text x="70" y="68" fill="#fff" font-size="14" font-weight="800">T3raTech</text>
  <text x="80" y="180" fill="#19a866" font-size="12" letter-spacing="3">BUILD IN AFRICA, FOR AFRICA</text>
  <text x="78" y="232" fill="#fff" font-size="40" font-weight="800">T3raTech Solutions</text>
  <text x="80" y="272" fill="#a7b1aa" font-size="14">Cursor reels in nearby MCP tools; subset changes per section.</text>
  <g transform="translate(820,300)"><path d="M0 0 L0 18 L5 13 L9 22 L13 20 L9 11 L16 11 Z" fill="#fff" stroke="#0a0d0b"/></g>
  <rect x="0" y="794" width="1280" height="26" fill="#111"/><text x="640" y="811" fill="#9be8c4" font-size="11" text-anchor="middle">CONCEPT 7 — MCP Tool Web: 103-tool radial web; cursor reels in nearby nodes and reveals names</text>
</svg>
