<svg xmlns="http://www.w3.org/2000/svg" viewBox="0 0 1280 820" font-family="Inter, system-ui, sans-serif">
  <title>08 — Particle Vortex</title>
  <defs><radialGradient id="bg8" cx="50%" cy="50%" r="60%"><stop offset="0%" stop-color="#0d1a14"/><stop offset="100%" stop-color="#050807"/></radialGradient></defs>
  <rect width="1280" height="820" fill="#0a0d0b"/>
  <rect x="0" y="0" width="1280" height="34" fill="#1b201d"/>
  <circle cx="20" cy="17" r="5" fill="#ff5f57"/><circle cx="40" cy="17" r="5" fill="#febc2e"/><circle cx="60" cy="17" r="5" fill="#28c840"/>
  <rect x="120" y="9" width="1040" height="16" rx="8" fill="#0a0d0b"/>
  <text x="640" y="21" fill="#6b756e" font-size="10" text-anchor="middle">t3ratech.co.zw · section: Community (green vortex, chat icons)</text>
  <rect x="0" y="34" width="1280" height="786" fill="url(#bg8)"/>
  <!-- spiral arms toward cursor at 660,420 -->
  <g fill="none" stroke="#19a866" stroke-opacity="0.3" stroke-width="1.5">
    <path d="M660 420 m -260 0 a 260 260 0 1 1 520 0 a 200 200 0 1 0 -400 0 a 140 140 0 1 1 280 0 a 80 80 0 1 0 -160 0"/>
    <path d="M660 420 m -300 -40 a 300 300 0 0 1 600 80 a 240 240 0 0 0 -480 -40 a 180 180 0 0 1 360 20 a 120 120 0 0 0 -240 0"/>
  </g>
  <g fill="#9be8c4">
    <circle cx="400" cy="420" r="3"/><circle cx="440" cy="380" r="3"/><circle cx="500" cy="350" r="3"/>
    <circle cx="560" cy="340" r="3"/><circle cx="620" cy="350" r="3"/><circle cx="680" cy="370" r="3"/>
    <circle cx="740" cy="400" r="3"/><circle cx="780" cy="440" r="3"/><circle cx="800" cy="490" r="3"/>
    <circle cx="540" cy="500" r="3"/><circle cx="580" cy="470" r="3"/><circle cx="610" cy="450" r="3"/>
    <circle cx="640" cy="430" r="3"/><circle cx="700" cy="420" r="3"/><circle cx="720" cy="450" r="3"/>
  </g>
  <!-- chat bubble icons pulled into eye -->
  <g fill="#19a866" opacity="0.7">
    <path d="M650 410 h14 a4 4 0 0 1 4 4 v6 a4 4 0 0 1 -4 4 h-8 l-4 4 v-4 h-2 a4 4 0 0 1 -4 -4 v-6 a4 4 0 0 1 4 -4 z" transform="scale(0.6) translate(1100 700)"/>
    <path d="M650 410 h14 a4 4 0 0 1 4 4 v6 a4 4 0 0 1 -4 4 h-8 l-4 4 v-4 h-2 a4 4 0 0 1 -4 -4 v-6 a4 4 0 0 1 4 -4 z" transform="scale(0.5) translate(1400 900)"/>
  </g>
  <rect x="0" y="34" width="1280" height="56" fill="#050505" fill-opacity="0.7"/>
  <rect x="32" y="48" width="28" height="28" rx="6" fill="#fff"/><text x="46" y="68" fill="#087a48" font-size="16" font-weight="800" text-anchor="middle">T3</text><text x="70" y="68" fill="#fff" font-size="14" font-weight="800">T3raTech</text>
  <text x="80" y="180" fill="#19a866" font-size="12" letter-spacing="3">BUILD IN AFRICA, FOR AFRICA</text>
  <text x="78" y="232" fill="#fff" font-size="40" font-weight="800">T3raTech Solutions</text>
  <text x="80" y="272" fill="#a7b1aa" font-size="14">A slow spiral drifts toward the cursor; color &amp; icons shift per section.</text>
  <g transform="translate(660,420)"><path d="M0 0 L0 18 L5 13 L9 22 L13 20 L9 11 L16 11 Z" fill="#fff" stroke="#0a0d0b"/></g>
  <rect x="0" y="794" width="1280" height="26" fill="#111"/><text x="640" y="811" fill="#9be8c4" font-size="11" text-anchor="middle">CONCEPT 8 — Particle Vortex: spiral particles drift to the cursor; color &amp; pulled-in icons change per section</text>
</svg>
