<svg xmlns="http://www.w3.org/2000/svg" viewBox="0 0 1280 820" font-family="Inter, system-ui, sans-serif">
  <title>13 — Circuit Trace Completion</title>
  <defs><radialGradient id="bg13" cx="50%" cy="40%" r="80%"><stop offset="0%" stop-color="#0a1410"/><stop offset="100%" stop-color="#050807"/></radialGradient></defs>
  <rect width="1280" height="820" fill="#0a0d0b"/>
  <rect x="0" y="0" width="1280" height="34" fill="#1b201d"/>
  <circle cx="20" cy="17" r="5" fill="#ff5f57"/><circle cx="40" cy="17" r="5" fill="#febc2e"/><circle cx="60" cy="17" r="5" fill="#28c840"/>
  <rect x="120" y="9" width="1040" height="16" rx="8" fill="#0a0d0b"/>
  <text x="640" y="21" fill="#6b756e" font-size="10" text-anchor="middle">t3ratech.co.zw · section: Products (routes to MCP Bridge lit)</text>
  <rect x="0" y="34" width="1280" height="786" fill="url(#bg13)"/>
  <!-- PCB traces (dim) -->
  <g stroke="#19a866" stroke-opacity="0.15" fill="none" stroke-width="1.5">
    <path d="M100 200 L 300 200 L 300 300 L 500 300 L 500 400 L 700 400"/>
    <path d="M100 400 L 250 400 L 250 500 L 450 500 L 450 600 L 700 600"/>
    <path d="M1180 200 L 980 200 L 980 300 L 780 300 L 780 400 L 700 400"/>
    <path d="M1180 400 L 930 400 L 930 500 L 730 500 L 730 600 L 700 600"/>
    <path d="M700 400 L 700 250 L 850 250"/><path d="M700 600 L 700 700 L 850 700"/>
  </g>
  <!-- lit traces near cursor at 500,400 -->
  <g stroke="#9be8c4" stroke-width="2" fill="none" stroke-opacity="0.9">
    <path d="M100 200 L 300 200 L 300 300 L 500 300 L 500 400 L 700 400"/>
  </g>
  <!-- nodes -->
  <g fill="#19a866" fill-opacity="0.3">
    <circle cx="100" cy="200" r="6"/><circle cx="100" cy="400" r="6"/>
    <circle cx="1180" cy="200" r="6"/><circle cx="1180" cy="400" r="6"/>
    <circle cx="850" cy="250" r="6"/><circle cx="850" cy="700" r="6"/>
  </g>
  <g fill="#9be8c4">
    <circle cx="700" cy="400" r="10"/><circle cx="500" cy="400" r="8"/><circle cx="300" cy="300" r="6"/>
  </g>
  <!-- component labels -->
  <g fill="#9be8c4" font-size="9">
    <rect x="660" y="386" width="80" height="28" rx="4" fill="#0e1310" stroke="#9be8c4"/>
    <text x="700" y="404" text-anchor="middle">MCP BRIDGE</text>
    <rect x="820" y="236" width="80" height="28" rx="4" fill="#0e1310" stroke="#19a866" stroke-opacity="0.4"/>
    <text x="860" y="254" text-anchor="middle" fill="#a7b1aa">BROWSER</text>
    <rect x="820" y="686" width="80" height="28" rx="4" fill="#0e1310" stroke="#19a866" stroke-opacity="0.4"/>
    <text x="860" y="704" text-anchor="middle" fill="#a7b1aa">MEMORY</text>
  </g>
  <rect x="0" y="34" width="1280" height="56" fill="#050505" fill-opacity="0.7"/>
  <rect x="32" y="48" width="28" height="28" rx="6" fill="#fff"/><text x="46" y="68" fill="#087a48" font-size="16" font-weight="800" text-anchor="middle">T3</text><text x="70" y="68" fill="#fff" font-size="14" font-weight="800">T3raTech</text>
  <text x="80" y="180" fill="#19a866" font-size="12" letter-spacing="3">BUILD IN AFRICA, FOR AFRICA</text>
  <text x="78" y="232" fill="#fff" font-size="40" font-weight="800">T3raTech Solutions</text>
  <text x="80" y="272" fill="#a7b1aa" font-size="14">Cursor completes PCB traces, lighting routes to section-relevant components.</text>
  <g transform="translate(500,400)"><path d="M0 0 L0 18 L5 13 L9 22 L13 20 L9 11 L16 11 Z" fill="#fff" stroke="#0a0d0b"/></g>
  <rect x="0" y="794" width="1280" height="26" fill="#111"/><text x="640" y="811" fill="#9be8c4" font-size="11" text-anchor="middle">CONCEPT 13 — Circuit Trace Completion: cursor lights PCB routes to section-relevant components</text>
</svg>
