<svg xmlns="http://www.w3.org/2000/svg" viewBox="0 0 1280 820" font-family="Inter, system-ui, sans-serif">
  <title>15 — Magnetic Field Lines</title>
  <defs><radialGradient id="bg15" cx="50%" cy="40%" r="80%"><stop offset="0%" stop-color="#0a1410"/><stop offset="100%" stop-color="#050807"/></radialGradient></defs>
  <rect width="1280" height="820" fill="#0a0d0b"/>
  <rect x="0" y="0" width="1280" height="34" fill="#1b201d"/>
  <circle cx="20" cy="17" r="5" fill="#ff5f57"/><circle cx="40" cy="17" r="5" fill="#febc2e"/><circle cx="60" cy="17" r="5" fill="#28c840"/>
  <rect x="120" y="9" width="1040" height="16" rx="8" fill="#0a0d0b"/>
  <text x="640" y="21" fill="#6b756e" font-size="10" text-anchor="middle">t3ratech.co.zw · section: Community (green field, group nodes)</text>
  <rect x="0" y="34" width="1280" height="786" fill="url(#bg15)"/>
  <!-- field lines deforming around cursor magnet at 620,400 -->
  <g stroke="#19a866" stroke-opacity="0.4" fill="none" stroke-width="1.5">
    <path d="M0 200 Q 300 200 620 400 Q 940 600 1280 600"/>
    <path d="M0 260 Q 320 260 620 400 Q 920 540 1280 540"/>
    <path d="M0 320 Q 340 320 620 400 Q 900 480 1280 480"/>
    <path d="M0 380 Q 360 380 620 400 Q 880 420 1280 420"/>
    <path d="M0 440 Q 360 440 620 400 Q 880 360 1280 360"/>
    <path d="M0 500 Q 340 500 620 400 Q 900 300 1280 300"/>
    <path d="M0 560 Q 320 560 620 400 Q 940 240 1280 240"/>
  </g>
  <!-- nodes (community groups) -->
  <g fill="#19a866" fill-opacity="0.4">
    <circle cx="200" cy="220" r="5"/><circle cx="400" cy="280" r="5"/><circle cx="800" cy="520" r="5"/>
    <circle cx="1000" cy="580" r="5"/><circle cx="300" cy="480" r="5"/><circle cx="900" cy="340" r="5"/>
  </g>
  <g fill="#9be8c4">
    <circle cx="540" cy="380" r="6"/><circle cx="700" cy="420" r="6"/>
  </g>
  <rect x="0" y="34" width="1280" height="56" fill="#050505" fill-opacity="0.7"/>
  <rect x="32" y="48" width="28" height="28" rx="6" fill="#fff"/><text x="46" y="68" fill="#087a48" font-size="16" font-weight="800" text-anchor="middle">T3</text><text x="70" y="68" fill="#fff" font-size="14" font-weight="800">T3raTech</text>
  <text x="80" y="180" fill="#19a866" font-size="12" letter-spacing="3">BUILD IN AFRICA, FOR AFRICA</text>
  <text x="78" y="232" fill="#fff" font-size="40" font-weight="800">T3raTech Solutions</text>
  <text x="80" y="272" fill="#a7b1aa" font-size="14">Cursor is a magnet; field lines deform and snap between nodes.</text>
  <!-- magnet poles at cursor -->
  <rect x="612" y="392" width="16" height="16" rx="2" fill="#cf2630" opacity="0.7"/>
  <g transform="translate(620,400)"><path d="M0 0 L0 18 L5 13 L9 22 L13 20 L9 11 L16 11 Z" fill="#fff" stroke="#0a0d0b"/></g>
  <rect x="0" y="794" width="1280" height="26" fill="#111"/><text x="640" y="811" fill="#9be8c4" font-size="11" text-anchor="middle">CONCEPT 15 — Magnetic Field Lines: cursor magnet deforms field lines that snap between section nodes</text>
</svg>
