<svg xmlns="http://www.w3.org/2000/svg" viewBox="0 0 1280 820" font-family="Inter, system-ui, sans-serif">
  <title>19 — Aurora Stir</title>
  <defs>
    <radialGradient id="bg19" cx="50%" cy="40%" r="80%"><stop offset="0%" stop-color="#0a1410"/><stop offset="100%" stop-color="#050807"/></radialGradient>
    <linearGradient id="aur19a" x1="0" y1="0" x2="1" y2="0">
      <stop offset="0%" stop-color="#19a866" stop-opacity="0"/><stop offset="50%" stop-color="#19a866" stop-opacity="0.5"/><stop offset="100%" stop-color="#19a866" stop-opacity="0"/>
    </linearGradient>
    <linearGradient id="aur19b" x1="0" y1="0" x2="1" y2="0">
      <stop offset="0%" stop-color="#1d6f9f" stop-opacity="0"/><stop offset="50%" stop-color="#1d6f9f" stop-opacity="0.4"/><stop offset="100%" stop-color="#1d6f9f" stop-opacity="0"/>
    </linearGradient>
  </defs>
  <rect width="1280" height="820" fill="#0a0d0b"/>
  <rect x="0" y="0" width="1280" height="34" fill="#1b201d"/>
  <circle cx="20" cy="17" r="5" fill="#ff5f57"/><circle cx="40" cy="17" r="5" fill="#febc2e"/><circle cx="60" cy="17" r="5" fill="#28c840"/>
  <rect x="120" y="9" width="1040" height="16" rx="8" fill="#0a0d0b"/>
  <text x="640" y="21" fill="#6b756e" font-size="10" text-anchor="middle">t3ratech.co.zw · section: Agent Tools (blue+green aurora)</text>
  <rect x="0" y="34" width="1280" height="786" fill="url(#bg19)"/>
  <!-- aurora curtains bending toward cursor at 640,380 -->
  <path d="M0 280 Q 320 200 640 380 Q 960 540 1280 300 L 1280 360 Q 960 600 640 420 Q 320 240 0 340 Z" fill="url(#aur19a)" opacity="0.6"/>
  <path d="M0 320 Q 340 260 640 380 Q 940 500 1280 340 L 1280 400 Q 940 560 640 440 Q 340 300 0 380 Z" fill="url(#aur19b)" opacity="0.5"/>
  <path d="M0 240 Q 300 180 640 380 Q 980 580 1280 260 L 1280 320 Q 980 640 640 400 Q 300 220 0 300 Z" fill="url(#aur19a)" opacity="0.3"/>
  <!-- agent silhouettes drifting in aurora -->
  <g fill="#9be8c4" opacity="0.5">
    <circle cx="400" cy="300" r="4"/><circle cx="500" cy="340" r="4"/><circle cx="800" cy="420" r="4"/>
    <circle cx="900" cy="460" r="4"/><circle cx="700" cy="400" r="4"/>
  </g>
  <rect x="0" y="34" width="1280" height="56" fill="#050505" fill-opacity="0.7"/>
  <rect x="32" y="48" width="28" height="28" rx="6" fill="#fff"/><text x="46" y="68" fill="#087a48" font-size="16" font-weight="800" text-anchor="middle">T3</text><text x="70" y="68" fill="#fff" font-size="14" font-weight="800">T3raTech</text>
  <text x="80" y="180" fill="#19a866" font-size="12" letter-spacing="3">BUILD IN AFRICA, FOR AFRICA</text>
  <text x="78" y="232" fill="#fff" font-size="40" font-weight="800">T3raTech Solutions</text>
  <text x="80" y="272" fill="#a7b1aa" font-size="14">Cursor stirs an aurora curtain; agent silhouettes drift inside it.</text>
  <g transform="translate(640,380)"><path d="M0 0 L0 18 L5 13 L9 22 L13 20 L9 11 L16 11 Z" fill="#fff" stroke="#0a0d0b"/></g>
  <rect x="0" y="794" width="1280" height="26" fill="#111"/><text x="640" y="811" fill="#9be8c4" font-size="11" text-anchor="middle">CONCEPT 19 — Aurora Stir: cursor stirs a colored aurora curtain; agent silhouettes drift inside; hue per section</text>
</svg>
