<svg xmlns="http://www.w3.org/2000/svg" viewBox="0 0 1280 820" font-family="Inter, system-ui, sans-serif">
  <title>21 — Connect-the-Dots Constellation</title>
  <defs><radialGradient id="bg21" cx="50%" cy="40%" r="80%"><stop offset="0%" stop-color="#0a1410"/><stop offset="100%" stop-color="#050807"/></radialGradient></defs>
  <rect width="1280" height="820" fill="#0a0d0b"/>
  <rect x="0" y="0" width="1280" height="34" fill="#1b201d"/>
  <circle cx="20" cy="17" r="5" fill="#ff5f57"/><circle cx="40" cy="17" r="5" fill="#febc2e"/><circle cx="60" cy="17" r="5" fill="#28c840"/>
  <rect x="120" y="9" width="1040" height="16" rx="8" fill="#0a0d0b"/>
  <text x="640" y="21" fill="#6b756e" font-size="10" text-anchor="middle">t3ratech.co.zw · section: Home (cursor draws Africa outline)</text>
  <rect x="0" y="34" width="1280" height="786" fill="url(#bg21)"/>
  <!-- stars -->
  <g fill="#19a866" fill-opacity="0.4">
    <circle cx="480" cy="300" r="3"/><circle cx="540" cy="280" r="3"/><circle cx="600" cy="290" r="3"/>
    <circle cx="660" cy="310" r="3"/><circle cx="700" cy="350" r="3"/><circle cx="720" cy="400" r="3"/>
    <circle cx="700" cy="450" r="3"/><circle cx="660" cy="490" r="3"/><circle cx="600" cy="500" r="3"/>
    <circle cx="540" cy="490" r="3"/><circle cx="500" cy="450" r="3"/><circle cx="480" cy="400" r="3"/>
    <circle cx="500" cy="350" r="3"/>
    <circle cx="200" cy="200" r="2"/><circle cx="900" cy="200" r="2"/><circle cx="200" cy="600" r="2"/><circle cx="1000" cy="600" r="2"/>
    <circle cx="1080" cy="300" r="2"/><circle cx="120" cy="400" r="2"/>
  </g>
  <!-- cursor at 600,400 draws lines between nearest stars forming Africa outline -->
  <g stroke="#9be8c4" stroke-width="2" fill="none" stroke-opacity="0.85">
    <path d="M480 300 L 540 280 L 600 290 L 660 310 L 700 350 L 720 400 L 700 450 L 660 490 L 600 500 L 540 490 L 500 450 L 480 400 L 500 350 L 480 300 Z"/>
  </g>
  <g fill="#9be8c4">
    <circle cx="480" cy="300" r="4"/><circle cx="600" cy="290" r="4"/><circle cx="720" cy="400" r="4"/><circle cx="600" cy="500" r="4"/>
  </g>
  <text x="600" y="400" fill="#9be8c4" font-size="10" text-anchor="middle" opacity="0.5">AFRICA</text>
  <rect x="0" y="34" width="1280" height="56" fill="#050505" fill-opacity="0.7"/>
  <rect x="32" y="48" width="28" height="28" rx="6" fill="#fff"/><text x="46" y="68" fill="#087a48" font-size="16" font-weight="800" text-anchor="middle">T3</text><text x="70" y="68" fill="#fff" font-size="14" font-weight="800">T3raTech</text>
  <text x="80" y="180" fill="#19a866" font-size="12" letter-spacing="3">BUILD IN AFRICA, FOR AFRICA</text>
  <text x="78" y="232" fill="#fff" font-size="40" font-weight="800">T3raTech Solutions</text>
  <text x="80" y="272" fill="#a7b1aa" font-size="14">Cursor auto-draws lines between nearest stars, forming section shapes.</text>
  <g transform="translate(600,400)"><path d="M0 0 L0 18 L5 13 L9 22 L13 20 L9 11 L16 11 Z" fill="#fff" stroke="#0a0d0b"/></g>
  <rect x="0" y="794" width="1280" height="26" fill="#111"/><text x="640" y="811" fill="#9be8c4" font-size="11" text-anchor="middle">CONCEPT 21 — Connect-the-Dots Constellation: cursor draws lines between nearest stars forming section shapes</text>
</svg>
